# xmcd CD database file
#
# Track frame offsets:
#	150
#	18815
#	40979
#	83770
#	108217
#	128550
#	149570
#	171008
#	182905
#	202718
#
# Disc length: 3009 seconds
#
# Revision: 0
# Processed by: cddbd v1.5.2PL0 Copyright (c) Steve Scherf et al.
# Submitted via: CDex 1.51
#
DISCID=780bbf0a
DTITLE=Various Artist - Hot and Spicy Salsa [CD2]
DYEAR=2008
DGENRE=Salsa
TTITLE0=Chonqui - Willie Colon
TTITLE1=Canto al Jibarito - Sonora Ponceña
TTITLE2=Ponte duro - Roberto Roena
TTITLE3=Yo soy asi - Larry Harlow
TTITLE4=No me paren la salsa - Ray Barretto
TTITLE5=Tirita - Adalberto Santiago
TTITLE6=Eres tu - Richie Ray and Bobby Cruz
TTITLE7=El titere - Louie Ramirez
TTITLE8=No puedo mas - Charlie Palmieri
TTITLE9=Coco de Maria - Azuquita
EXTD=YEAR: 2008
EXTT0=
EXTT1=
EXTT2=
EXTT3=
EXTT4=
EXTT5=
EXTT6=
EXTT7=
EXTT8=
EXTT9=
PLAYORDER=
